/* XPM */
static char * closeI_xpm[] = {
"18 40 14 1",
" 	c None",
".	c #3B3A3A",
"+	c #070707",
"@	c #333232",
"#	c #000000",
"$	c #FF6158",
"%	c #E03D33",
"&	c #D03A31",
"*	c #FB5F56",
"=	c #D13A31",
"-	c #DE3C33",
";	c #BF3D35",
">	c #FB6057",
",	c #E23D33",
"..................",
"..................",
"..................",
"..++++++++++++++..",
"..+@@@@@@@@@@@@+..",
"..+@@@@@@@@@@@@+..",
"..+@@@@@@@@@@@@+..",
"..+@@@@@@@@@@@@+..",
"..+@@@@@@@@@@@@+..",
"..+@@@@@@@@@@@@+..",
"..+@@@@@@@@@@@@+..",
"..+@@@@@@@@@@@@+..",
"..+@@@@@@@@@@@@+..",
"..+@@@@@@@@@@@@+..",
"..+@@@@@@@@@@@@+..",
"..+@@@@@@@@@@@@+..",
"..++++++++++++++..",
"..................",
"..................",
"##################",
"..................",
"..................",
"..................",
"..++++++++++++++..",
"..+$$$$$$$$$$$$+..",
"..+$$$$$$$$$$$$+..",
"..+$$%&*$$*=-$$+..",
"..+$$=;&**&;=$$+..",
"..+$$>=;&&;=>$$+..",
"..+$$$>=;;&*$$$+..",
"..+$$$*=;;&*$$$+..",
"..+$$*&;==;&*$$+..",
"..+$$&;=>>=;&$$+..",
"..+$$,&*$$>=%$$+..",
"..+$$$$$$$$$$$$+..",
"..+$$$$$$$$$$$$+..",
"..++++++++++++++..",
"..................",
"..................",
"##################"};
