/* XPM */
static char * closeA_xpm[] = {
"18 40 13 1",
" 	c None",
".	c #3B3A3A",
"+	c #070707",
"@	c #FF6158",
"#	c #000000",
"$	c #E03D33",
"%	c #D03A31",
"&	c #FB5F56",
"*	c #D13A31",
"=	c #DE3C33",
"-	c #BF3D35",
";	c #FB6057",
">	c #E23D33",
"..................",
"..................",
"..................",
"..++++++++++++++..",
"..+@@@@@@@@@@@@+..",
"..+@@@@@@@@@@@@+..",
"..+@@@@@@@@@@@@+..",
"..+@@@@@@@@@@@@+..",
"..+@@@@@@@@@@@@+..",
"..+@@@@@@@@@@@@+..",
"..+@@@@@@@@@@@@+..",
"..+@@@@@@@@@@@@+..",
"..+@@@@@@@@@@@@+..",
"..+@@@@@@@@@@@@+..",
"..+@@@@@@@@@@@@+..",
"..+@@@@@@@@@@@@+..",
"..++++++++++++++..",
"..................",
"..................",
"##################",
"..................",
"..................",
"..................",
"..++++++++++++++..",
"..+@@@@@@@@@@@@+..",
"..+@@@@@@@@@@@@+..",
"..+@@$%&@@&*=@@+..",
"..+@@*-%&&%-*@@+..",
"..+@@;*-%%-*;@@+..",
"..+@@@;*--%&@@@+..",
"..+@@@&*--%&@@@+..",
"..+@@&%-**-%&@@+..",
"..+@@%-*;;*-%@@+..",
"..+@@>%&@@;*$@@+..",
"..+@@@@@@@@@@@@+..",
"..+@@@@@@@@@@@@+..",
"..++++++++++++++..",
"..................",
"..................",
"##################"};
