/* XPM */
static char * frameATR_xpm[] = {
"5 24 3 1",
" 	c None",
".	c #141313",
"+	c #323131",
".....",
"++++.",
"++++.",
"++++.",
"++++.",
"++++.",
"++++.",
"++++.",
"++++.",
"++++.",
"++++.",
"++++.",
"++++.",
"++++.",
"++++.",
"++++.",
"++++.",
"++++.",
"++++.",
"++++.",
"++++.",
"++++.",
"++++.",
"....."};
