/* XPM */
static char * maximizeA_xpm[] = {
"18 40 6 1",
" 	c None",
".	c #3B3A3A",
"+	c #070707",
"@	c #28CA41",
"#	c #000000",
"$	c #1B912D",
"..................",
"..................",
"..................",
"..++++++++++++++..",
"..+@@@@@@@@@@@@+..",
"..+@@@@@@@@@@@@+..",
"..+@@@@@@@@@@@@+..",
"..+@@@@@@@@@@@@+..",
"..+@@@@@@@@@@@@+..",
"..+@@@@@@@@@@@@+..",
"..+@@@@@@@@@@@@+..",
"..+@@@@@@@@@@@@+..",
"..+@@@@@@@@@@@@+..",
"..+@@@@@@@@@@@@+..",
"..+@@@@@@@@@@@@+..",
"..+@@@@@@@@@@@@+..",
"..++++++++++++++..",
"..................",
"..................",
"##################",
"..................",
"..................",
"..................",
"..++++++++++++++..",
"..+@@@@@@@@@@@@+..",
"..+@@@@@@@@@@@@+..",
"..+@@@@@$$@@@@@+..",
"..+@@@@@$$@@@@@+..",
"..+@@@@@$$@@@@@+..",
"..+@@$$$$$$$$@@+..",
"..+@@$$$$$$$$@@+..",
"..+@@@@@$$@@@@@+..",
"..+@@@@@$$@@@@@+..",
"..+@@@@@$$@@@@@+..",
"..+@@@@@@@@@@@@+..",
"..+@@@@@@@@@@@@+..",
"..++++++++++++++..",
"..................",
"..................",
"##################"};
