/* XPM */
static char * minimizeI_xpm[] = {
"18 40 9 1",
" 	c None",
".	c #3B3A3A",
"+	c #070707",
"@	c #333232",
"#	c #000000",
"$	c #FFBD30",
"%	c #B88820",
"&	c #B78720",
"*	c #FEBC30",
"..................",
"..................",
"..................",
"..++++++++++++++..",
"..+@@@@@@@@@@@@+..",
"..+@@@@@@@@@@@@+..",
"..+@@@@@@@@@@@@+..",
"..+@@@@@@@@@@@@+..",
"..+@@@@@@@@@@@@+..",
"..+@@@@@@@@@@@@+..",
"..+@@@@@@@@@@@@+..",
"..+@@@@@@@@@@@@+..",
"..+@@@@@@@@@@@@+..",
"..+@@@@@@@@@@@@+..",
"..+@@@@@@@@@@@@+..",
"..+@@@@@@@@@@@@+..",
"..++++++++++++++..",
"..................",
"..................",
"##################",
"..................",
"..................",
"..................",
"..++++++++++++++..",
"..+$$$$$$$$$$$$+..",
"..+$$$$$$$$$$$$+..",
"..+$$$$$$$$$$$$+..",
"..+$$$$$$$$$$$$+..",
"..+$$$$$$$$$$$$+..",
"..+$$%%%%%%%%$$+..",
"..+$$&&&&&&&&$$+..",
"..+$$$$$$$$$$$$+..",
"..+$$$$$$$$$$$$+..",
"..+$$$$$$$$$$$$+..",
"..+$$$$$$$$$$$$+..",
"..+************+..",
"..++++++++++++++..",
"..................",
"..................",
"##################"};
