/* XPM */
static char * minimizeA_xpm[] = {
"18 40 8 1",
" 	c None",
".	c #3B3A3A",
"+	c #070707",
"@	c #FFBD30",
"#	c #000000",
"$	c #B88820",
"%	c #B78720",
"&	c #FEBC30",
"..................",
"..................",
"..................",
"..++++++++++++++..",
"..+@@@@@@@@@@@@+..",
"..+@@@@@@@@@@@@+..",
"..+@@@@@@@@@@@@+..",
"..+@@@@@@@@@@@@+..",
"..+@@@@@@@@@@@@+..",
"..+@@@@@@@@@@@@+..",
"..+@@@@@@@@@@@@+..",
"..+@@@@@@@@@@@@+..",
"..+@@@@@@@@@@@@+..",
"..+@@@@@@@@@@@@+..",
"..+@@@@@@@@@@@@+..",
"..+@@@@@@@@@@@@+..",
"..++++++++++++++..",
"..................",
"..................",
"##################",
"..................",
"..................",
"..................",
"..++++++++++++++..",
"..+@@@@@@@@@@@@+..",
"..+@@@@@@@@@@@@+..",
"..+@@@@@@@@@@@@+..",
"..+@@@@@@@@@@@@+..",
"..+@@@@@@@@@@@@+..",
"..+@@$$$$$$$$@@+..",
"..+@@%%%%%%%%@@+..",
"..+@@@@@@@@@@@@+..",
"..+@@@@@@@@@@@@+..",
"..+@@@@@@@@@@@@+..",
"..+@@@@@@@@@@@@+..",
"..+&&&&&&&&&&&&+..",
"..++++++++++++++..",
"..................",
"..................",
"##################"};
