/* XPM */
static char * restoreA_xpm[] = {
"18 40 6 1",
" 	c None",
".	c #3B3A3A",
"+	c #070707",
"@	c #28CA41",
"#	c #1B912D",
"$	c #000000",
"..................",
"..................",
"..................",
"..++++++++++++++..",
"..+@@@@@@@@@@@@+..",
"..+@@@@@@@@@@@@+..",
"..+@@@@@##@@@@@+..",
"..+@@@@@##@@@@@+..",
"..+@@@@@##@@@@@+..",
"..+@@########@@+..",
"..+@@########@@+..",
"..+@@@@@##@@@@@+..",
"..+@@@@@##@@@@@+..",
"..+@@@@@##@@@@@+..",
"..+@@@@@@@@@@@@+..",
"..+@@@@@@@@@@@@+..",
"..++++++++++++++..",
"..................",
"..................",
"$$$$$$$$$$$$$$$$$$",
"..................",
"..................",
"..................",
"..++++++++++++++..",
"..+@@@@@@@@@@@@+..",
"..+@@@@@@@@@@@@+..",
"..+@@@@@##@@@@@+..",
"..+@@@@@##@@@@@+..",
"..+@@@@@##@@@@@+..",
"..+@@########@@+..",
"..+@@########@@+..",
"..+@@@@@##@@@@@+..",
"..+@@@@@##@@@@@+..",
"..+@@@@@##@@@@@+..",
"..+@@@@@@@@@@@@+..",
"..+@@@@@@@@@@@@+..",
"..++++++++++++++..",
"..................",
"..................",
"$$$$$$$$$$$$$$$$$$"};
