/* XPM */
static char * titleAB_xpm[] = {
"1 20 3 1",
" 	c None",
".	c #3B3A3A",
"+	c #000000",
".",
".",
".",
".",
".",
".",
".",
".",
".",
".",
".",
".",
".",
".",
".",
".",
".",
".",
".",
"+"};
