/* XPM */
static char * wp_xpm[] = {
"100 100 5 1",
" 	c None",
".	c #6A6A6A",
"+	c #666666",
"@	c #5A5A5A",
"#	c #656565",
"....+@@@@@@@@@#.........+@@@@@@@@@#.........+@@@@@@@@@#.........+@@@@@@@@@#.........+@@@@@@@@@#.....",
"...+@@@@@@@@@#.........+@@@@@@@@@#.........+@@@@@@@@@#.........+@@@@@@@@@#.........+@@@@@@@@@#......",
"..+@@@@@@@@@#.........+@@@@@@@@@#.........+@@@@@@@@@#.........+@@@@@@@@@#.........+@@@@@@@@@#.......",
".+@@@@@@@@@#.........+@@@@@@@@@#.........+@@@@@@@@@#.........+@@@@@@@@@#.........+@@@@@@@@@#........",
"+@@@@@@@@@#.........+@@@@@@@@@#.........+@@@@@@@@@#.........+@@@@@@@@@#.........+@@@@@@@@@#.........",
"@@@@@@@@@#.........#@@@@@@@@@#.........#@@@@@@@@@#.........#@@@@@@@@@#.........#@@@@@@@@@#.........#",
"@@@@@@@@#.........+@@@@@@@@@#.........+@@@@@@@@@#.........+@@@@@@@@@#.........+@@@@@@@@@#.........+@",
"@@@@@@@#.........+@@@@@@@@@#.........+@@@@@@@@@#.........+@@@@@@@@@#.........+@@@@@@@@@#.........+@@",
"@@@@@@#.........+@@@@@@@@@#.........+@@@@@@@@@#.........+@@@@@@@@@#.........+@@@@@@@@@#.........+@@@",
"@@@@@#.........+@@@@@@@@@#.........+@@@@@@@@@#.........+@@@@@@@@@#.........+@@@@@@@@@#.........+@@@@",
"@@@@#.........+@@@@@@@@@#.........+@@@@@@@@@#.........+@@@@@@@@@#.........+@@@@@@@@@#.........+@@@@@",
"@@@#.........+@@@@@@@@@#.........+@@@@@@@@@#.........+@@@@@@@@@#.........+@@@@@@@@@#.........+@@@@@@",
"@@#.........+@@@@@@@@@#.........+@@@@@@@@@#.........+@@@@@@@@@#.........+@@@@@@@@@#.........+@@@@@@@",
"@#.........+@@@@@@@@@#.........+@@@@@@@@@#.........+@@@@@@@@@#.........+@@@@@@@@@#.........+@@@@@@@@",
"#.........#@@@@@@@@@#.........#@@@@@@@@@#.........#@@@@@@@@@#.........#@@@@@@@@@#.........#@@@@@@@@@",
".........+@@@@@@@@@#.........+@@@@@@@@@#.........+@@@@@@@@@#.........+@@@@@@@@@#.........+@@@@@@@@@#",
"........+@@@@@@@@@#.........+@@@@@@@@@#.........+@@@@@@@@@#.........+@@@@@@@@@#.........+@@@@@@@@@#.",
".......+@@@@@@@@@#.........+@@@@@@@@@#.........+@@@@@@@@@#.........+@@@@@@@@@#.........+@@@@@@@@@#..",
"......+@@@@@@@@@#.........+@@@@@@@@@#.........+@@@@@@@@@#.........+@@@@@@@@@#.........+@@@@@@@@@#...",
".....+@@@@@@@@@#.........+@@@@@@@@@#.........+@@@@@@@@@#.........+@@@@@@@@@#.........+@@@@@@@@@#....",
"....+@@@@@@@@@#.........+@@@@@@@@@#.........+@@@@@@@@@#.........+@@@@@@@@@#.........+@@@@@@@@@#.....",
"...+@@@@@@@@@#.........+@@@@@@@@@#.........+@@@@@@@@@#.........+@@@@@@@@@#.........+@@@@@@@@@#......",
"..+@@@@@@@@@#.........+@@@@@@@@@#.........+@@@@@@@@@#.........+@@@@@@@@@#.........+@@@@@@@@@#.......",
".+@@@@@@@@@#.........+@@@@@@@@@#.........+@@@@@@@@@#.........+@@@@@@@@@#.........+@@@@@@@@@#........",
"+@@@@@@@@@#.........+@@@@@@@@@#.........+@@@@@@@@@#.........+@@@@@@@@@#.........+@@@@@@@@@#.........",
"@@@@@@@@@#.........#@@@@@@@@@#.........#@@@@@@@@@#.........#@@@@@@@@@#.........#@@@@@@@@@#.........#",
"@@@@@@@@#.........+@@@@@@@@@#.........+@@@@@@@@@#.........+@@@@@@@@@#.........+@@@@@@@@@#.........+@",
"@@@@@@@#.........+@@@@@@@@@#.........+@@@@@@@@@#.........+@@@@@@@@@#.........+@@@@@@@@@#.........+@@",
"@@@@@@#.........+@@@@@@@@@#.........+@@@@@@@@@#.........+@@@@@@@@@#.........+@@@@@@@@@#.........+@@@",
"@@@@@#.........+@@@@@@@@@#.........+@@@@@@@@@#.........+@@@@@@@@@#.........+@@@@@@@@@#.........+@@@@",
"@@@@#.........+@@@@@@@@@#.........+@@@@@@@@@#.........+@@@@@@@@@#.........+@@@@@@@@@#.........+@@@@@",
"@@@#.........+@@@@@@@@@#.........+@@@@@@@@@#.........+@@@@@@@@@#.........+@@@@@@@@@#.........+@@@@@@",
"@@#.........+@@@@@@@@@#.........+@@@@@@@@@#.........+@@@@@@@@@#.........+@@@@@@@@@#.........+@@@@@@@",
"@#.........+@@@@@@@@@#.........+@@@@@@@@@#.........+@@@@@@@@@#.........+@@@@@@@@@#.........+@@@@@@@@",
"#.........#@@@@@@@@@#.........#@@@@@@@@@#.........#@@@@@@@@@#.........#@@@@@@@@@#.........#@@@@@@@@@",
".........+@@@@@@@@@#.........+@@@@@@@@@#.........+@@@@@@@@@#.........+@@@@@@@@@#.........+@@@@@@@@@#",
"........+@@@@@@@@@#.........+@@@@@@@@@#.........+@@@@@@@@@#.........+@@@@@@@@@#.........+@@@@@@@@@#.",
".......+@@@@@@@@@#.........+@@@@@@@@@#.........+@@@@@@@@@#.........+@@@@@@@@@#.........+@@@@@@@@@#..",
"......+@@@@@@@@@#.........+@@@@@@@@@#.........+@@@@@@@@@#.........+@@@@@@@@@#.........+@@@@@@@@@#...",
".....+@@@@@@@@@#.........+@@@@@@@@@#.........+@@@@@@@@@#.........+@@@@@@@@@#.........+@@@@@@@@@#....",
"....+@@@@@@@@@#.........+@@@@@@@@@#.........+@@@@@@@@@#.........+@@@@@@@@@#.........+@@@@@@@@@#.....",
"...+@@@@@@@@@#.........+@@@@@@@@@#.........+@@@@@@@@@#.........+@@@@@@@@@#.........+@@@@@@@@@#......",
"..+@@@@@@@@@#.........+@@@@@@@@@#.........+@@@@@@@@@#.........+@@@@@@@@@#.........+@@@@@@@@@#.......",
".+@@@@@@@@@#.........+@@@@@@@@@#.........+@@@@@@@@@#.........+@@@@@@@@@#.........+@@@@@@@@@#........",
"+@@@@@@@@@#.........+@@@@@@@@@#.........+@@@@@@@@@#.........+@@@@@@@@@#.........+@@@@@@@@@#.........",
"@@@@@@@@@#.........#@@@@@@@@@#.........#@@@@@@@@@#.........#@@@@@@@@@#.........#@@@@@@@@@#.........#",
"@@@@@@@@#.........+@@@@@@@@@#.........+@@@@@@@@@#.........+@@@@@@@@@#.........+@@@@@@@@@#.........+@",
"@@@@@@@#.........+@@@@@@@@@#.........+@@@@@@@@@#.........+@@@@@@@@@#.........+@@@@@@@@@#.........+@@",
"@@@@@@#.........+@@@@@@@@@#.........+@@@@@@@@@#.........+@@@@@@@@@#.........+@@@@@@@@@#.........+@@@",
"@@@@@#.........+@@@@@@@@@#.........+@@@@@@@@@#.........+@@@@@@@@@#.........+@@@@@@@@@#.........+@@@@",
"@@@@#.........+@@@@@@@@@#.........+@@@@@@@@@#.........+@@@@@@@@@#.........+@@@@@@@@@#.........+@@@@@",
"@@@#.........+@@@@@@@@@#.........+@@@@@@@@@#.........+@@@@@@@@@#.........+@@@@@@@@@#.........+@@@@@@",
"@@#.........+@@@@@@@@@#.........+@@@@@@@@@#.........+@@@@@@@@@#.........+@@@@@@@@@#.........+@@@@@@@",
"@#.........+@@@@@@@@@#.........+@@@@@@@@@#.........+@@@@@@@@@#.........+@@@@@@@@@#.........+@@@@@@@@",
"#.........#@@@@@@@@@#.........#@@@@@@@@@#.........#@@@@@@@@@#.........#@@@@@@@@@#.........#@@@@@@@@@",
".........+@@@@@@@@@#.........+@@@@@@@@@#.........+@@@@@@@@@#.........+@@@@@@@@@#.........+@@@@@@@@@#",
"........+@@@@@@@@@#.........+@@@@@@@@@#.........+@@@@@@@@@#.........+@@@@@@@@@#.........+@@@@@@@@@#.",
".......+@@@@@@@@@#.........+@@@@@@@@@#.........+@@@@@@@@@#.........+@@@@@@@@@#.........+@@@@@@@@@#..",
"......+@@@@@@@@@#.........+@@@@@@@@@#.........+@@@@@@@@@#.........+@@@@@@@@@#.........+@@@@@@@@@#...",
".....+@@@@@@@@@#.........+@@@@@@@@@#.........+@@@@@@@@@#.........+@@@@@@@@@#.........+@@@@@@@@@#....",
"....+@@@@@@@@@#.........+@@@@@@@@@#.........+@@@@@@@@@#.........+@@@@@@@@@#.........+@@@@@@@@@#.....",
"...+@@@@@@@@@#.........+@@@@@@@@@#.........+@@@@@@@@@#.........+@@@@@@@@@#.........+@@@@@@@@@#......",
"..+@@@@@@@@@#.........+@@@@@@@@@#.........+@@@@@@@@@#.........+@@@@@@@@@#.........+@@@@@@@@@#.......",
".+@@@@@@@@@#.........+@@@@@@@@@#.........+@@@@@@@@@#.........+@@@@@@@@@#.........+@@@@@@@@@#........",
"+@@@@@@@@@#.........+@@@@@@@@@#.........+@@@@@@@@@#.........+@@@@@@@@@#.........+@@@@@@@@@#.........",
"@@@@@@@@@#.........#@@@@@@@@@#.........#@@@@@@@@@#.........#@@@@@@@@@#.........#@@@@@@@@@#.........#",
"@@@@@@@@#.........+@@@@@@@@@#.........+@@@@@@@@@#.........+@@@@@@@@@#.........+@@@@@@@@@#.........+@",
"@@@@@@@#.........+@@@@@@@@@#.........+@@@@@@@@@#.........+@@@@@@@@@#.........+@@@@@@@@@#.........+@@",
"@@@@@@#.........+@@@@@@@@@#.........+@@@@@@@@@#.........+@@@@@@@@@#.........+@@@@@@@@@#.........+@@@",
"@@@@@#.........+@@@@@@@@@#.........+@@@@@@@@@#.........+@@@@@@@@@#.........+@@@@@@@@@#.........+@@@@",
"@@@@#.........+@@@@@@@@@#.........+@@@@@@@@@#.........+@@@@@@@@@#.........+@@@@@@@@@#.........+@@@@@",
"@@@#.........+@@@@@@@@@#.........+@@@@@@@@@#.........+@@@@@@@@@#.........+@@@@@@@@@#.........+@@@@@@",
"@@#.........+@@@@@@@@@#.........+@@@@@@@@@#.........+@@@@@@@@@#.........+@@@@@@@@@#.........+@@@@@@@",
"@#.........+@@@@@@@@@#.........+@@@@@@@@@#.........+@@@@@@@@@#.........+@@@@@@@@@#.........+@@@@@@@@",
"#.........#@@@@@@@@@#.........#@@@@@@@@@#.........#@@@@@@@@@#.........#@@@@@@@@@#.........#@@@@@@@@@",
".........+@@@@@@@@@#.........+@@@@@@@@@#.........+@@@@@@@@@#.........+@@@@@@@@@#.........+@@@@@@@@@#",
"........+@@@@@@@@@#.........+@@@@@@@@@#.........+@@@@@@@@@#.........+@@@@@@@@@#.........+@@@@@@@@@#.",
".......+@@@@@@@@@#.........+@@@@@@@@@#.........+@@@@@@@@@#.........+@@@@@@@@@#.........+@@@@@@@@@#..",
"......+@@@@@@@@@#.........+@@@@@@@@@#.........+@@@@@@@@@#.........+@@@@@@@@@#.........+@@@@@@@@@#...",
".....+@@@@@@@@@#.........+@@@@@@@@@#.........+@@@@@@@@@#.........+@@@@@@@@@#.........+@@@@@@@@@#....",
"....+@@@@@@@@@#.........+@@@@@@@@@#.........+@@@@@@@@@#.........+@@@@@@@@@#.........+@@@@@@@@@#.....",
"...+@@@@@@@@@#.........+@@@@@@@@@#.........+@@@@@@@@@#.........+@@@@@@@@@#.........+@@@@@@@@@#......",
"..+@@@@@@@@@#.........+@@@@@@@@@#.........+@@@@@@@@@#.........+@@@@@@@@@#.........+@@@@@@@@@#.......",
".+@@@@@@@@@#.........+@@@@@@@@@#.........+@@@@@@@@@#.........+@@@@@@@@@#.........+@@@@@@@@@#........",
"+@@@@@@@@@#.........+@@@@@@@@@#.........+@@@@@@@@@#.........+@@@@@@@@@#.........+@@@@@@@@@#.........",
"@@@@@@@@@#.........#@@@@@@@@@#.........#@@@@@@@@@#.........#@@@@@@@@@#.........#@@@@@@@@@#.........#",
"@@@@@@@@#.........+@@@@@@@@@#.........+@@@@@@@@@#.........+@@@@@@@@@#.........+@@@@@@@@@#.........+@",
"@@@@@@@#.........+@@@@@@@@@#.........+@@@@@@@@@#.........+@@@@@@@@@#.........+@@@@@@@@@#.........+@@",
"@@@@@@#.........+@@@@@@@@@#.........+@@@@@@@@@#.........+@@@@@@@@@#.........+@@@@@@@@@#.........+@@@",
"@@@@@#.........+@@@@@@@@@#.........+@@@@@@@@@#.........+@@@@@@@@@#.........+@@@@@@@@@#.........+@@@@",
"@@@@#.........+@@@@@@@@@#.........+@@@@@@@@@#.........+@@@@@@@@@#.........+@@@@@@@@@#.........+@@@@@",
"@@@#.........+@@@@@@@@@#.........+@@@@@@@@@#.........+@@@@@@@@@#.........+@@@@@@@@@#.........+@@@@@@",
"@@#.........+@@@@@@@@@#.........+@@@@@@@@@#.........+@@@@@@@@@#.........+@@@@@@@@@#.........+@@@@@@@",
"@#.........+@@@@@@@@@#.........+@@@@@@@@@#.........+@@@@@@@@@#.........+@@@@@@@@@#.........+@@@@@@@@",
"#.........#@@@@@@@@@#.........#@@@@@@@@@#.........#@@@@@@@@@#.........#@@@@@@@@@#.........#@@@@@@@@@",
".........+@@@@@@@@@#.........+@@@@@@@@@#.........+@@@@@@@@@#.........+@@@@@@@@@#.........+@@@@@@@@@#",
"........+@@@@@@@@@#.........+@@@@@@@@@#.........+@@@@@@@@@#.........+@@@@@@@@@#.........+@@@@@@@@@#.",
".......+@@@@@@@@@#.........+@@@@@@@@@#.........+@@@@@@@@@#.........+@@@@@@@@@#.........+@@@@@@@@@#..",
"......+@@@@@@@@@#.........+@@@@@@@@@#.........+@@@@@@@@@#.........+@@@@@@@@@#.........+@@@@@@@@@#...",
".....+@@@@@@@@@#.........+@@@@@@@@@#.........+@@@@@@@@@#.........+@@@@@@@@@#.........+@@@@@@@@@#...."};
