/* XPM */
static char *title_1_active[] = {
/* columns rows colors chars-per-pixel */
"2 40 2 1 ",
"  c black",
". c #3B3A3A",
/* pixels */
"  ",
"  ",
"..",
"..",
"..",
"..",
"..",
"..",
"..",
"..",
"..",
"..",
"..",
"..",
"..",
"..",
"..",
"..",
"..",
"..",
"..",
"..",
"..",
"..",
"..",
"..",
"..",
"..",
"..",
"..",
"..",
"..",
"..",
"..",
"..",
"..",
"..",
"..",
"  ",
"  "
};
