/* XPM */
static char *top_left_active[] = {
/* columns rows colors chars-per-pixel */
"10 40 2 1 ",
"  c black",
". c #3B3A3A",
/* pixels */
"          ",
"          ",
"  ........",
"  ........",
"  ........",
"  ........",
"  ........",
"  ........",
"  ........",
"  ........",
"  ........",
"  ........",
"  ........",
"  ........",
"  ........",
"  ........",
"  ........",
"  ........",
"  ........",
"  ........",
"  ........",
"  ........",
"  ........",
"  ........",
"  ........",
"  ........",
"  ........",
"  ........",
"  ........",
"  ........",
"  ........",
"  ........",
"  ........",
"  ........",
"  ........",
"  ........",
"  ........",
"  ........",
"          ",
"          "
};
