/* XPM */
static char *top_right_active[] = {
/* columns rows colors chars-per-pixel */
"10 40 2 1 ",
"  c black",
". c #3B3A3A",
/* pixels */
"          ",
"          ",
"........  ",
"........  ",
"........  ",
"........  ",
"........  ",
"........  ",
"........  ",
"........  ",
"........  ",
"........  ",
"........  ",
"........  ",
"........  ",
"........  ",
"........  ",
"........  ",
"........  ",
"........  ",
"........  ",
"........  ",
"........  ",
"........  ",
"........  ",
"........  ",
"........  ",
"........  ",
"........  ",
"........  ",
"........  ",
"........  ",
"........  ",
"........  ",
"........  ",
"........  ",
"........  ",
"........  ",
"          ",
"          "
};
