/* XPM */
static char * buttonpressed_xpm[] = {
"20 20 4 1",
" 	c None",
".	c #000000",
"+	c #323131",
"@	c #7EAE55",
"....................",
"....................",
"..++++++++++++++++..",
"..++++++++++++++++..",
"..++++++++++++++++..",
"..++++++++++++++++..",
"..++++++++++++++++..",
"..++++++++++++++++..",
"..++++++++++++++++..",
"..++++++++++++++++..",
"..++++@@@@@@@@++++..",
"..++++@@@@@@@@++++..",
"..++++@@@@@@@@++++..",
"..++++@@@@@@@@++++..",
"..++++++++++++++++..",
"..++++++++++++++++..",
"..++++++++++++++++..",
"..++++++++++++++++..",
"....................",
"...................."};
