/* XPM */
static char * menuitemprelight_xpm[] = {
"20 12 2 1",
" 	c None",
".	c #7EAE55",
"                    ",
"                    ",
"                    ",
"                    ",
"                    ",
"                    ",
"      ........      ",
"      ........      ",
"      ........      ",
"      ........      ",
"                    ",
"                    "};
