/* XPM */
static char *scalevslider[] = {
/* columns rows colors chars-per-pixel */
"32 36 3 1 ",
"  c #000000",
". c #7EAE55",
"X c None",
/* pixels */
"                    XXXXXXXXXXXX",
"                    XXXXXXXXXXXX",
"  ................  XXXXXXXXXXXX",
"  ................  XXXXXXXXXXXX",
"  ................  XXXXXXXXXXXX",
"  ................  XXXXXXXXXXXX",
"  ................  XXXXXXXXXXXX",
"  ................  XXXXXXXXXXXX",
"  ................  XXXXXXXXXXXX",
"  ................  XXXXXXXXXXXX",
"  ................  XXXXXXXXXXXX",
"  ................  XXXXXXXXXXXX",
"  ................  XXXXXXXXXXXX",
"  ................  XXXXXXXXXXXX",
"  ................  XXXXXXXXXXXX",
"  ................  XXXXXXXXXXXX",
"  ................  XXXXXXXXXXXX",
"  ................  XXXXXXXXXXXX",
"  ................  XXXXXXXXXXXX",
"  ................  XXXXXXXXXXXX",
"  ................  XXXXXXXXXXXX",
"  ................  XXXXXXXXXXXX",
"  ................  XXXXXXXXXXXX",
"  ................  XXXXXXXXXXXX",
"  ................  XXXXXXXXXXXX",
"  ................  XXXXXXXXXXXX",
"  ................  XXXXXXXXXXXX",
"  ................  XXXXXXXXXXXX",
"  ................  XXXXXXXXXXXX",
"  ................  XXXXXXXXXXXX",
"  ................  XXXXXXXXXXXX",
"  ................  XXXXXXXXXXXX",
"  ................  XXXXXXXXXXXX",
"  ................  XXXXXXXXXXXX",
"                    XXXXXXXXXXXX",
"                    XXXXXXXXXXXX"
};
