/* XPM */
static char *scalehslider[] = {
/* columns rows colors chars-per-pixel */
"36 32 3 1 ",
"  c #000000",
". c #7EAE55",
"X c None",
/* pixels */
"XXXXXXXXXXXXXXXXXXXXXXXXXXXXXXXXXXXX",
"XXXXXXXXXXXXXXXXXXXXXXXXXXXXXXXXXXXX",
"XXXXXXXXXXXXXXXXXXXXXXXXXXXXXXXXXXXX",
"XXXXXXXXXXXXXXXXXXXXXXXXXXXXXXXXXXXX",
"XXXXXXXXXXXXXXXXXXXXXXXXXXXXXXXXXXXX",
"XXXXXXXXXXXXXXXXXXXXXXXXXXXXXXXXXXXX",
"                                    ",
"                                    ",
"  ................................  ",
"  ................................  ",
"  ................................  ",
"  ................................  ",
"  ................................  ",
"  ................................  ",
"  ................................  ",
"  ................................  ",
"  ................................  ",
"  ................................  ",
"  ................................  ",
"  ................................  ",
"  ................................  ",
"  ................................  ",
"  ................................  ",
"  ................................  ",
"                                    ",
"                                    ",
"XXXXXXXXXXXXXXXXXXXXXXXXXXXXXXXXXXXX",
"XXXXXXXXXXXXXXXXXXXXXXXXXXXXXXXXXXXX",
"XXXXXXXXXXXXXXXXXXXXXXXXXXXXXXXXXXXX",
"XXXXXXXXXXXXXXXXXXXXXXXXXXXXXXXXXXXX",
"XXXXXXXXXXXXXXXXXXXXXXXXXXXXXXXXXXXX",
"XXXXXXXXXXXXXXXXXXXXXXXXXXXXXXXXXXXX"
};
