/* XPM */
static char *scrollbarpressed[] = {
/* columns rows colors chars-per-pixel */
"20 20 3 1 ",
"  c #000000",
". c #7EAE55",
"X c None",
/* pixels */
"XXXXXXXXXXXXXXXXXXXX",
"XXXXXXXXXXXXXXXXXXXX",
"XX                XX",
"XX                XX",
"XX  ............  XX",
"XX  ............  XX",
"XX  ............  XX",
"XX  ............  XX",
"XX  ............  XX",
"XX  ............  XX",
"XX  ............  XX",
"XX  ............  XX",
"XX  ............  XX",
"XX  ............  XX",
"XX  ............  XX",
"XX  ............  XX",
"XX                XX",
"XX                XX",
"XXXXXXXXXXXXXXXXXXXX",
"XXXXXXXXXXXXXXXXXXXX"
};
