/* XPM */
static char *tabbottom[] = {
/* columns rows colors chars-per-pixel */
"20 12 2 1 ",
"  c #7EAE55",
". c None",
/* pixels */
"....................",
"....................",
"....................",
"....................",
"....................",
"....................",
"......        ......",
"......        ......",
"......        ......",
"......        ......",
"....................",
"...................."
};
