/* XPM */
static char *tabright[] = {
/* columns rows colors chars-per-pixel */
"12 20 2 1 ",
"  c #7EAE55",
". c None",
/* pixels */
"............",
"............",
"............",
"............",
"............",
"............",
"......    ..",
"......    ..",
"......    ..",
"......    ..",
"......    ..",
"......    ..",
"......    ..",
"......    ..",
"............",
"............",
"............",
"............",
"............",
"............"
};
