/* XPM */
static char * tabbottom_xpm[] = {
"10 6 2 1",
" 	c None",
".	c #7eae55",
"          ",
"          ",
"          ",
"   ....   ",
"   ....   ",
"          "};
