/* XPM */
static char * tableft_xpm[] = {
"6 10 2 1",
" 	c None",
".	c #7eae55",
"      ",
"      ",
"      ",
" ..   ",
" ..   ",
" ..   ",
" ..   ",
"      ",
"      ",
"      "};
