<?xml version="1.0" encoding="UTF-8"?>
<svg width="36" height="36" version="1.1" viewBox="0 0 4.7625 4.7625" xmlns="http://www.w3.org/2000/svg">
<g transform="translate(-.52916 -291.71)">
<path transform="matrix(.26458 0 0 .26458 0 291.18)" d="m2.0002 2.0002-1.512e-4 18h18l1.52e-4 -18zm3 3 6-1.237e-4 6.0001 1.237e-4 -1.24e-4 6v6l-6.0001-1.24e-4 -6 1.24e-4 -1e-7 -6z" style="fill:#3b3a3a;stroke-width:.99998"/>
<path transform="matrix(.26458 0 0 .26458 0 291.18)" d="m4 4v14h14v-14zm1 1h12v12h-12z" style="fill:#070707;paint-order:markers fill stroke"/>
<path d="m1.7879 293.34 0.74835 0.74838-0.74835 0.74833 0.37417 0.37417 0.74835-0.74832 0.74835 0.74832 0.37417-0.37417-0.74835-0.74833 0.74835-0.74838-0.37417-0.37417-0.74835 0.74838-0.74835-0.74838z" style="opacity:.4;stroke-width:.26458"/>
</g>
</svg>
