<?xml version="1.0" encoding="UTF-8" standalone="no"?>
<!-- Created with Inkscape (http://www.inkscape.org/) -->
<svg id="svg6530" xmlns:rdf="http://www.w3.org/1999/02/22-rdf-syntax-ns#" xmlns="http://www.w3.org/2000/svg" height="24" viewBox="0 0 24 24" width="24" version="1.1" xmlns:cc="http://creativecommons.org/ns#" xmlns:dc="http://purl.org/dc/elements/1.1/">
 <metadata id="metadata6535">
  <rdf:RDF>
   <cc:Work rdf:about="">
    <dc:format>image/svg+xml</dc:format>
    <dc:type rdf:resource="http://purl.org/dc/dcmitype/StillImage"/>
    <dc:title/>
   </cc:Work>
  </rdf:RDF>
 </metadata>
 <g id="layer1" transform="translate(-128 -908.36)">
  <path id="path4274" style="color:#000000;fill:#555" d="m134 922.36c0 3 2 5 5 5h2c3 0 4.7598-1.5657 4.959-4h0.541c1.5 0 1.5-1.5 1.5-1.5v-1c0-1.5-1.5-1.5-1.5-1.5h-0.5-12zm12.5-2c0.5-0.0323 0.5156 0.53125 0.5156 0.53125v1c0 0.46875-0.5156 0.46875-0.5156 0.46875h-0.5l0.01-1.9844z"/>
  <path id="path4276" style="color:#000000;opacity:.35;fill:#555" d="m140.19 912.36c-1.0982 1.3842-1.4282 2.066-1.0321 2.9471 0.3591 0.79867 1.2876 1.2059 0.821 3.0529 0.7664-0.89992 1.3758-2.0428 0.774-2.9647-0.6122-0.9377-0.9479-1.5073-0.5629-3.0353z"/>
  <path id="path4278" style="color:#000000;opacity:.35;fill:#555" d="m137.19 912.36c-1.0982 1.3842-1.4282 2.066-1.0321 2.9471 0.3591 0.79867 1.2876 1.2059 0.821 3.0529 0.7664-0.89992 1.3758-2.0428 0.774-2.9647-0.6122-0.9377-0.9479-1.5073-0.5629-3.0353z"/>
  <path id="path4280" style="color:#000000;opacity:.35;fill:#555" d="m143.19 912.36c-1.0982 1.3842-1.4282 2.066-1.0321 2.9471 0.3591 0.79867 1.2876 1.2059 0.821 3.0529 0.7664-0.89992 1.3758-2.0428 0.774-2.9647-0.6122-0.9377-0.9479-1.5073-0.5629-3.0353z"/>
 </g>
</svg>
