<?xml version="1.0" encoding="UTF-8" standalone="no"?>
<!-- Created with Inkscape (http://www.inkscape.org/) -->
<svg id="svg6530" xmlns:rdf="http://www.w3.org/1999/02/22-rdf-syntax-ns#" xmlns="http://www.w3.org/2000/svg" height="24" viewBox="0 0 24 24" width="24" version="1.1" xmlns:cc="http://creativecommons.org/ns#" xmlns:dc="http://purl.org/dc/elements/1.1/">
 <metadata id="metadata6535">
  <rdf:RDF>
   <cc:Work rdf:about="">
    <dc:format>image/svg+xml</dc:format>
    <dc:type rdf:resource="http://purl.org/dc/dcmitype/StillImage"/>
    <dc:title/>
   </cc:Work>
  </rdf:RDF>
 </metadata>
 <g id="layer1" transform="translate(-32 -660.36)">
  <path id="rect5820" style="color:#bebebe;fill:#555" d="m44 665.36c-0.55395 0-1 0.44605-1 1v5.0039c0 0.55395 0.44605 1 1 1s1-0.44605 1-1v-5.0039c0-0.55395-0.44605-1-1-1zm2.9395 1.9922a1.0001 1.0001 0 0 0 -0.54297 1.8086c1.3779 1.0307 1.941 2.8163 1.4043 4.4512-0.53674 1.6348-2.0489 2.7386-3.7695 2.752s-3.2504-1.0671-3.8125-2.6934c-0.56214-1.6263-0.0257-3.4206 1.3359-4.4726a1.0001 1.0001 0 1 0 -1.2227 -1.582c-2.035 1.5722-2.8421 4.2785-2.002 6.709 0.84011 2.4305 3.1453 4.0591 5.7168 4.0391s4.8521-1.6856 5.6543-4.1289c0.80217-2.4433-0.0482-5.1354-2.1074-6.6758a1.0001 1.0001 0 0 0 -0.6543 -0.20704z"/>
 </g>
</svg>
