/* XPM */
static char * errmail_xpm[] = {
"16 16 45 1",
" 	c None",
".	c #141313",
"+	c #B4B5B5",
"@	c #F1F2F2",
"#	c #BDBDBD",
"$	c #E3E4E4",
"%	c #545353",
"&	c #A8A8A8",
"*	c #F0F1F1",
"=	c #8A8989",
"-	c #151414",
";	c #7A7B7B",
">	c #EFF0F0",
",	c #AEAEAE",
"'	c #7E7F7F",
")	c #A9AAAA",
"!	c #525151",
"~	c #E2E3E3",
"{	c #E4E5E5",
"]	c #585858",
"^	c #333232",
"/	c #CACBCB",
"(	c #CFCFCF",
"_	c #373737",
":	c #4D0D0D",
"<	c #A70303",
"[	c #C30000",
"}	c #D33434",
"|	c #E6ADAD",
"1	c #1E1E1E",
"2	c #4C0D0D",
"3	c #CC0000",
"4	c #480D0D",
"5	c #AA0303",
"6	c #A00404",
"7	c #CD0C0C",
"8	c #F0ECEC",
"9	c #BE0101",
"0	c #D22B2B",
"a	c #4B0D0D",
"b	c #CB0000",
"c	c #470D0D",
"d	c #A50303",
"e	c #A30404",
"f	c #460D0D",
"................",
"................",
"................",
".+@@@@@@@@@@@@#.",
".@@@@@@@@@@@@@@.",
".@@@$%....%$@@@.",
".@@&@*=-.;>@,@@.",
".@@.'>@))@>'.@@.",
".@@..!~@@{]..@@.",
".@@...^/(_:<[}|.",
".@@....112333334",
".@@......5333336",
".@@@@@@@@7@@@@89",
".#@@@@@@@0333336",
".........a3333bc",
"..........2d[ef."};
