/* XPM */
static char * mail_xpm[] = {
"16 16 26 1",
" 	c None",
".	c #141313",
"+	c #B4B5B5",
"@	c #F1F2F2",
"#	c #BDBDBD",
"$	c #E3E4E4",
"%	c #545353",
"&	c #A8A8A8",
"*	c #F0F1F1",
"=	c #8A8989",
"-	c #151414",
";	c #7A7B7B",
">	c #EFF0F0",
",	c #AEAEAE",
"'	c #7E7F7F",
")	c #A9AAAA",
"!	c #525151",
"~	c #E2E3E3",
"{	c #E4E5E5",
"]	c #585858",
"^	c #333232",
"/	c #CACBCB",
"(	c #CFCFCF",
"_	c #373737",
":	c #1E1E1E",
"<	c #BCBCBC",
"................",
"................",
"................",
".+@@@@@@@@@@@@#.",
".@@@@@@@@@@@@@@.",
".@@@$%....%$@@@.",
".@@&@*=-.;>@,@@.",
".@@.'>@))@>'.@@.",
".@@..!~@@{]..@@.",
".@@...^/(_...@@.",
".@@....::....@@.",
".@@..........@@.",
".@@@@@@@@@@@@@@.",
".#@@@@@@@@@@@@<.",
"................",
"................"};
