/* XPM */
static char * nomail_xpm[] = {
"16 16 22 1",
" 	c None",
".	c #141313",
"+	c #636363",
"@	c #828282",
"#	c #686767",
"$	c #7B7B7B",
"%	c #343333",
"&	c #5E5D5D",
"*	c #4F4E4E",
"=	c #464646",
"-	c #818181",
";	c #616060",
">	c #484848",
",	c #5E5E5E",
"'	c #333232",
")	c #7C7B7B",
"!	c #353535",
"~	c #232222",
"{	c #6E6E6E",
"]	c #717171",
"^	c #252424",
"/	c #191818",
"................",
"................",
"................",
".+@@@@@@@@@@@@#.",
".@@@@@@@@@@@@@@.",
".@@@$%....%$@@@.",
".@@&@@*..=-@;@@.",
".@@.>-@,,@->.@@.",
".@@..'$@@)!..@@.",
".@@...~{]^...@@.",
".@@....//....@@.",
".@@..........@@.",
".@@@@@@@@@@@@@@.",
".#@@@@@@@@@@@@#.",
"................",
"................"};
