/* XPM */
static char * title_1_inactive_xpm[] = {
"1 20 3 1",
" 	c None",
".	c #000000",
"+	c #3B3A3A",
".",
"+",
"+",
"+",
"+",
"+",
"+",
"+",
"+",
"+",
"+",
"+",
"+",
"+",
"+",
"+",
"+",
"+",
"+",
"."};
