/* XPM */
static char * top_left_active_xpm[] = {
"5 20 3 1",
" 	c None",
".	c #000000",
"+	c #3B3A3A",
".....",
".++++",
".++++",
".++++",
".++++",
".++++",
".++++",
".++++",
".++++",
".++++",
".++++",
".++++",
".++++",
".++++",
".++++",
".++++",
".++++",
".++++",
".++++",
"....."};
