/* XPM */
static char * cbuttons_xpm[] = {
"136 36 6 1",
" 	c None",
".	c #424141",
"+	c #F1F2F2",
"@	c #7eae55",
"#	c #cc0000",
"$	c #FF00FF",
"........................................................................................................................................",
"........................................................................................................................................",
"........................................................................................................................................",
"........................................................................................................................................",
"........................................................................................................................................",
".........................................................................................................................+++............",
".........+..+....................+.....................+...+...................++++..................+..+...............+...+++++.......",
"........+..+......................+....................+...+..................+....+..................+..+..............+........+......",
".......+..+........................+...................+...+..................+....+...................+..+.............+........+......",
".......+..+........................+...................+...+..................+....+...................+..+.............+........+......",
"........+..+......................+....................+...+..................+....+..................+..+...............++++++++.......",
".........+..+....................+.....................+...+...................++++..................+..+...............................",
"........................................................................................................................................",
"........................................................................................................................................",
"........................................................................................................................................",
"........................................................................................................................................",
"........................................................................................................................................",
"........................................................................................................................................",
"........................................................................................................................................",
"........................................................................................................................................",
"........................................................................................................................................",
".........................................................................................................................@@@............",
"........................................................................................................................@...@@@@@.......",
"........................................................................................................................@........@......",
".........@..@....................@.....................@...@...................####..................@..@...............@........@......",
"........@..@......................@....................@...@..................#....#..................@..@..............@........@......",
".......@..@........................@...................@...@..................#....#...................@..@..............@@@@@@@@.......",
".......@..@........................@...................@...@..................#....#...................@..@.............................",
"........@..@......................@....................@...@..................#....#..................@..@..............................",
".........@..@....................@.....................@...@...................####..................@..@...............................",
"........................................................................................................................................",
"........................................................................................................................................",
"..................................................................................................................$$$$$$$$$$$$$$$$$$$$$$",
"..................................................................................................................$$$$$$$$$$$$$$$$$$$$$$",
"..................................................................................................................$$$$$$$$$$$$$$$$$$$$$$",
"..................................................................................................................$$$$$$$$$$$$$$$$$$$$$$"};
