/* XPM */
static char * monoster_xpm[] = {
"58 24 5 1",
" 	c None",
".	c #323131",
"+	c #F1F2F2",
"@	c #0D0D0D",
"#	c #656666",
"..........................................................",
"..........................................................",
"..........................................................",
"..+++.+++.+++.++..+++..++.....+...+..++..+..+..++.........",
".+.....+..+...+@+.+...+..+....++.++.+..+.++.+.+..+........",
"..++...+..+++.++..+++.+..+....+.+.+.+..+.+.++.+..+........",
"....+..+..+...+.+.+...+..+....+...+.+..+.+..+.+..+........",
".+++...+..+++.+.+.+++..++.....+...+..++..+..+..++.........",
"..........................................................",
"..........................................................",
"..........................................................",
"..........................................................",
"..........................................................",
"..........................................................",
"..........................................................",
"..###.###.###.##..###..##.....#...#..##..#..#..##.........",
".#.....#..#...#.#.#...#..#....##.##.#..#.##.#.#..#........",
"..##...#..###.##..###.#..#....#.#.#.#..#.#.##.#..#........",
"....#..#..#...#.#.#...#..#....#...#.#..#.#..#.#..#........",
".###...#..###.#.#.###..##.....#...#..##..#..#..##.........",
"..........................................................",
"..........................................................",
"..........................................................",
".........................................................."};
