/* XPM */
static char * nums_ex_xpm[] = {
"108 13 3 1",
" 	c None",
".	c #323131",
"+	c #f1f2f2",
"............................................................................................................",
"............................................................................................................",
"............................................................................................................",
"...+++........+......+++......+++.........+.....++++.....+++.....+++++.....+++......+++.....................",
"..+...+......++.....+...+....+...+.......++.....+.......+...+........+....+...+....+...+....................",
"..+...+.....+.+.........+........+......+.+.....+.......+...........+.....+...+....+...+....................",
"..+...+.......+........+.......++......+..+.....+++.....++++........+......+++.....+...+..............+++...",
"..+...+.......+.......+..........+....+...+........+....+...+......+......+...+.....++++....................",
"..+...+.......+......+...........+....++++++.......+....+...+......+......+...+........+....................",
"..+...+.......+.....+........+...+........+........+....+...+.....+.......+...+....+...+....................",
"...+++........+.....+++++.....+++.........+.....+++......+++......+........+++......+++.....................",
"............................................................................................................",
"............................................................................................................"};
