/* XPM */
static char * playpaus_xpm[] = {
"42 9 5 1",
" 	c None",
".	c #323131",
"+	c #656666",
"@	c #F1F2F2",
"#	c #7eae55",
"...++...............................@@@+++",
"...+++...+++...+++.+++++++..........@@@+++",
"...++++..+++...+++.+++++++..........@@@+++",
"...+++++.+++...+++.+++++++................",
"...+++++++++...+++.+++++++................",
"...+++++.+++...+++.+++++++................",
"...++++..+++...+++.+++++++..........+++###",
"...+++...+++...+++.+++++++..........+++###",
"...++...............................+++###"};
