/* XPM */
static char * posbar_xpm[] = {
"307 10 6 1",
" 	c None",
".	c #424141",
"+	c #FF00FF",
"@	c #101010",
"#	c #323131",
"$	c #7eae55",
".....................................................................................................................................................................................................................................................................................+.............................",
".....................................................................................................................................................................................................................................................................................+.............................",
".....................................................................................................................................................................................................................................................................................+.............................",
"@@@@@@@@@@@@@@@@@@@@@@@@@@@@@@@@@@@@@@@@@@@@@@@@@@@@@@@@@@@@@@@@@@@@@@@@@@@@@@@@@@@@@@@@@@@@@@@@@@@@@@@@@@@@@@@@@@@@@@@@@@@@@@@@@@@@@@@@@@@@@@@@@@@@@@@@@@@@@@@@@@@@@@@@@@@@@@@@@@@@@@@@@@@@@@@@@@@@@@@@@@@@@@@@@@@@@@@@@@@@@@@@@@@@@@@@@@@@@@@@@@@@@@@@@@@@@@@@@@@@@@@@@@@@@@@@@@@@@+@@@@@@@@@@@@@@@@@@@@@@@@@@@@@",
"@######################################################################################################################################################################################################################################################@@$$$$$$$$$$$$$$$$$$$$$$$$$$$@+@$$$$$$$$$$$$$$$$$$$$$$$$$$$@",
"@######################################################################################################################################################################################################################################################@@$$$$$$$$$$$$$$$$$$$$$$$$$$$@+@$$$$$$$$$$$$$$$$$$$$$$$$$$$@",
"@######################################################################################################################################################################################################################################################@@$$$$$$$$$$$$$$$$$$$$$$$$$$$@+@$$$$$$$$$$$$$$$$$$$$$$$$$$$@",
"@######################################################################################################################################################################################################################################################@@$$$$$$$$$$$$$$$$$$$$$$$$$$$@+@$$$$$$$$$$$$$$$$$$$$$$$$$$$@",
"@######################################################################################################################################################################################################################################################@@$$$$$$$$$$$$$$$$$$$$$$$$$$$@+@$$$$$$$$$$$$$$$$$$$$$$$$$$$@",
"@@@@@@@@@@@@@@@@@@@@@@@@@@@@@@@@@@@@@@@@@@@@@@@@@@@@@@@@@@@@@@@@@@@@@@@@@@@@@@@@@@@@@@@@@@@@@@@@@@@@@@@@@@@@@@@@@@@@@@@@@@@@@@@@@@@@@@@@@@@@@@@@@@@@@@@@@@@@@@@@@@@@@@@@@@@@@@@@@@@@@@@@@@@@@@@@@@@@@@@@@@@@@@@@@@@@@@@@@@@@@@@@@@@@@@@@@@@@@@@@@@@@@@@@@@@@@@@@@@@@@@@@@@@@@@@@@@@@@+@@@@@@@@@@@@@@@@@@@@@@@@@@@@@"};
