/* XPM */
static char * shufrep_xpm[] = {
"92 85 8 1",
" 	c None",
".	c #424141",
"+	c #FF00FF",
"@	c #656666",
"#	c #00FF00",
"$	c #7eae55",
"%	c #427DEF",
"&	c #323131",
"..........................................................................++++++++++++++++++",
"..........................................................................++++++++++++++++++",
"..........................................................................++++++++++++++++++",
"..........................................................................++++++++++++++++++",
"...@@@@@.........................................................@........++++++++++++++++++",
"..@.....@...............................................@@@....@@@@.......++++++++++++++++++",
"..@.....@..................................................@..@..@........++++++++++++++++++",
"..@.....@...................................................@@............++++++++++++++++++",
"..@.....@...................................................@@............++++++++++++++++++",
"..@...@.@..................................................@..@..@........++++++++++++++++++",
"...@.@@@................................................@@@....@@@@.......++++++++++++++++++",
"......@..........................................................@........++++++++++++++++++",
"..........................................................................++++++++++++++++++",
"..........................................................................++++++++++++++++++",
"..........................................................................++++++++++++++++++",
"..........................................................................#+++++++++++++++++",
"..........................................................................++++++++++++++++++",
"..........................................................................++++++++++++++++++",
"..........................................................................++++++++++++++++++",
"...$$$$$.........................................................$........++++++++++++++++++",
"..$.....$...............................................$$$....$$$$.......++++++++++++++++++",
"..$.....$..................................................$..$..$........++++++++++++++++++",
"..$.....$...................................................$$............++++++++++++++++++",
"..$.....$...................................................$$............++++++++++++++++++",
"..$...$.$..................................................$..$..$........++++++++++++++++++",
"...$.$$$................................................$$$....$$$$.......++++++++++++++++++",
"......$..........................................................$........++++++++++++++++++",
"..........................................................................++++++++++++++++++",
"..........................................................................++++++++++++++++++",
"..........................................................................++++++++++++++++++",
"..........................................................................++++++++++++++++++",
"..........................................................................#+++++++++++++++++",
"..........................................................................++++++++++++++++++",
"..........................................................................++++++++++++++++++",
"...$$$$$.........................................................$........++++++++++++++++++",
"..$.....$...............................................$$$....$$$$.......++++++++++++++++++",
"..$.....$..................................................$..$..$........++++++++++++++++++",
"..$.....$...................................................$$............++++++++++++++++++",
"..$.....$...................................................$$............++++++++++++++++++",
"..$...$.$..................................................$..$..$........++++++++++++++++++",
"...$.$$$................................................$$$....$$$$.......++++++++++++++++++",
"......$..........................................................$........++++++++++++++++++",
"..........................................................................++++++++++++++++++",
"..........................................................................++++++++++++++++++",
"..........................................................................++++++++++++++++++",
"..........................................................................++++++++++++++++++",
"..........................................................................++++++++++++++++++",
"..........................................................................#+++++++++++++++++",
"..........................................................................++++++++++++++++++",
"...@@@@@.........................................................@........++++++++++++++++++",
"..@.....@...............................................@@@....@@@@.......++++++++++++++++++",
"..@.....@..................................................@..@..@........++++++++++++++++++",
"..@.....@...................................................@@............++++++++++++++++++",
"..@.....@...................................................@@............++++++++++++++++++",
"..@...@.@..................................................@..@..@........++++++++++++++++++",
"...@.@@@................................................@@@....@@@@.......++++++++++++++++++",
"......@..........................................................@........++++++++++++++++++",
"..........................................................................++++++++++++++++++",
"..........................................................................++++++++++++++++++",
"..........................................................................++++++++++++++++++",
"++++++++++++++++++++++$++++#+++++++++++++++++%++++++++++++++++++++++%+++++++++++++++++++++++",
"&&&&&&&&&&&&&&&&&&&&&&&&&&&&&&&&&&&&&&&&&&&&&&&&&&&&&&&&&&&&&&&&&&&&&&&&&&&&&&&&&&&&&&&&&&&&",
"&&&&&&&&&&&&&&&&&&&&&&&&&&&&&&&&&&&&&&&&&&&&&&&&&&&&&&&&&&&&&&&&&&&&&&&&&&&&&&&&&&&&&&&&&&&&",
"&&&&&&&&&&&&&&&&&&&&&&&&&&&&&&&&&&&&&&&&&&&&&&&&&&&&&&&&&&&&&&&&&&&&&&&&&&&&&&&&&&&&&&&&&&&&",
"&@@@@&&@@&&@@@@&@@@&&&&&@@@&&@&&&&&@@&&&@@@&&&&@@@@&&@@&&@@@@&@@@&&&&&@@@&&@&&&&&@@&&&@@@&&&",
"&@&&&&@&&@&&&&@&@&&@&&&&@&&@&@&&&&@&&@&&&@&&&&&@&&&&@&&@&&&&@&@&&@&&&&@&&@&@&&&&@&&@&&&@&&&&",
"&@@@&&@&&@&&&@&&@&&@&&&&@&&@&@&&&&&@&&&&&@&&&&&@@@&&@&&@&&&@&&@&&@&&&&@&&@&@&&&&&@&&&&&@&&&&",
"&@&&&&@@&@&&@&&&@@@&&&&&@@@&&@&&&&&&@&&&&@&&&&&@&&&&@@&@&&@&&&@@@&&&&&@@@&&@&&&&&&@&&&&@&&&&",
"&@&&&&@&@@&@&&&&@&&@&&&&@&&&&@&&&&@&&@&&&@&&&&&@&&&&@&@@&@&&&&@&&@&&&&@&&&&@&&&&@&&@&&&@&&&&",
"&@@@@&&@@&&@@@@&@&&@&&&&@&&&&@@@@&&@@&&&&@&&&&&@@@@&&@@&&@@@@&@&&@&&&&@&&&&@@@@&&@@&&&&@&&&&",
"&&&&&&&&&@&&&&&&&&&&&&&&&&&&&&&&&&&&&&&&&&&&&&&&&&&&&&&@&&&&&&&&&&&&&&&&&&&&&&&&&&&&&&&&&&&&",
"&&&&&&&&&&&&&&&&&&&&&&&&&&&&&&&&&&&&&&&&&&&&&&&&&&&&&&&&&&&&&&&&&&&&&&&&&&&&&&&&&&&&&&&&&&&&",
"&&&&&&&&&&&&&&&&&&&&&&&&&&&&&&&&&&&&&&&&&&&&&&&&&&&&&&&&&&&&&&&&&&&&&&&&&&&&&&&&&&&&&&&&&&&&",
"&&&&&&&&&&&&&&&&&&&&&&&&&&&&&&&&&&&&&&&&&&&&&&&&&&&&&&&&&&&&&&&&&&&&&&&&&&&&&&&&&&&&&&&&&&&&",
"&&&&&&&&&&&&&&&&&&&&&&&&&&&&&&&&&&&&&&&&&&&&&&&&&&&&&&&&&&&&&&&&&&&&&&&&&&&&&&&&&&&&&&&&&&&&",
"&&&&&&&&&&&&&&&&&&&&&&&&&&&&&&&&&&&&&&&&&&&&&&&&&&&&&&&&&&&&&&&&&&&&&&&&&&&&&&&&&&&&&&&&&&&&",
"&$$$$&&$$&&$$$$&$$$&&&&&$$$&&$&&&&&$$&&&$$$&&&&$$$$&&$$&&$$$$&$$$&&&&&$$$&&$&&&&&$$&&&$$$&&&",
"&$&&&&$&&$&&&&$&$&&$&&&&$&&$&$&&&&$&&$&&&$&&&&&$&&&&$&&$&&&&$&$&&$&&&&$&&$&$&&&&$&&$&&&$&&&&",
"&$$$&&$&&$&&&$&&$&&$&&&&$&&$&$&&&&&$&&&&&$&&&&&$$$&&$&&$&&&$&&$&&$&&&&$&&$&$&&&&&$&&&&&$&&&&",
"&$&&&&$$&$&&$&&&$$$&&&&&$$$&&$&&&&&&$&&&&$&&&&&$&&&&$$&$&&$&&&$$$&&&&&$$$&&$&&&&&&$&&&&$&&&&",
"&$&&&&$&$$&$&&&&$&&$&&&&$&&&&$&&&&$&&$&&&$&&&&&$&&&&$&$$&$&&&&$&&$&&&&$&&&&$&&&&$&&$&&&$&&&&",
"&$$$$&&$$&&$$$$&$&&$&&&&$&&&&$$$$&&$$&&&&$&&&&&$$$$&&$$&&$$$$&$&&$&&&&$&&&&$$$$&&$$&&&&$&&&&",
"&&&&&&&&&$&&&&&&&&&&&&&&&&&&&&&&&&&&&&&&&&&&&&&&&&&&&&&$&&&&&&&&&&&&&&&&&&&&&&&&&&&&&&&&&&&&",
"&&&&&&&&&&&&&&&&&&&&&&&&&&&&&&&&&&&&&&&&&&&&&&&&&&&&&&&&&&&&&&&&&&&&&&&&&&&&&&&&&&&&&&&&&&&&",
"&&&&&&&&&&&&&&&&&&&&&&&&&&&&&&&&&&&&&&&&&&&&&&&&&&&&&&&&&&&&&&&&&&&&&&&&&&&&&&&&&&&&&&&&&&&&"};
