/* XPM */
static char *text_png[] = {
/* columns rows colors chars-per-pixel */
"155 18 3 1 ",
"  c #323131",
". c #f1f2f2",
"X c white",
/* pixels */
" ..  ...   ..  ...  .... ....  ... .  .  ...    . .  . .    .  . .  .  ..  ...   ..  ...   ...  ... .  . .  . .  . .  . .  . ....  . .    ..               ",
".  . .  . .  . .  . .    .    .    .  .   .     . . .  .    .... .  . .  . .  . .  . .  . .      .  .  . .  . .  . .  . .  .    .  . .   .  .              ",
".  . ...  .    .  . ...  .    . .. ....   .     . ..   .    .... .. . .  . .  . .  . .  .  ..    .  .  . .  . .  .  ..  ....   .        . .. .             ",
".... .  . .    .  . .    ...  .  . .  .   .     . . .  .    .  . . .. .  . ...  .. . ...     .   .  .  . .  . ....  ..     .  .         . ....             ",
".  . .  . .  . .  . .    .    .  . .  .   .  .  . .  . .    .  . .  . .  . .    . .. . .     .   .  .  .  ..  .... .  .   .  .           .                 ",
".  . ...   ..  ...  .... .     ..  .  .  ...  ..  .  . .... .  . .  .  ..  .     ... .  . ...    .   ..   ..  .  . .  . ..   ....         ..               ",
" ..    .   ..   ..    .. ....  ..  ....  ..   ..                    . .           .   .          .             ..    ..   .    .   ..              .   ..  ",
".  .  ..  .  . .  .  . . .    .       . .  . .  .                  .   .          .   .          .  .        . .      .  . .  . .  .. .      ...  ... .... ",
". ..   .     .   .  .  . ...  ...    .   ..  .  .            ..    .   .              .        ..... .      .  .      . .   .  .     .            ..   ..  ",
".. .   .    .     . ....    . .  .  .   .  .  ...                  .   .   ....       .          .    .    .   .      .       . ..  .        ...   .. .... ",
".  .   .   .   .  .    . .  . .  .  .   .  .    .            ..    .   .                         .     .  .    .      .       . .  . ..  .        ...  ..  ",
" ..    .  ....  ..     .  ..   ..   .    ..   ..  . . ...           . .               .   .....         ..     ..    ..        . .   ..  .         .       ",
" ..  .  . .  .  ..                                                                                                                                         ",
".  .  ..       .  .   .                                                                                                                                    ",
" ..  .  .  ..     . ...                                                                                                                                    ",
".  . .  . .  .  ..   ...                                                                                                                                   ",
".... .  . ....       .                                                                                                                                     ",
".  .  ..  .  .  ..                                                                                                                                         "
};
