/* XPM */
static char * desktop_xpm[] = {
"16 16 7 1",
" 	c None",
".	c #F0F2F2",
"+	c #F1F2F2",
"@	c #F1F1F1",
"#	c #F2F2F2",
"$	c #F0F1F1",
"%	c #F1F3F3",
"                ",
"                ",
" .++@      #++. ",
" ++++ ++++ $+++ ",
" +++        +++ ",
" #+          +@ ",
"                ",
"  +          +  ",
"  +          +  ",
"                ",
" ..          %+ ",
" +++        +++ ",
" ++++ ++++ $+++ ",
" .++#      @+++ ",
"                ",
"                "};
