/* XPM */
static char * linux_xpm[] = {
"35 24 6 1",
" 	c None",
".	c #141313",
"+	c #606060",
"@	c #BEBFBF",
"#	c #BDBEBE",
"$	c #BDBDBD",
"...............................+...",
"...............................+...",
"...............................+...",
"...............................+...",
"...............................+...",
"...............................+...",
"...............................+...",
"..........@#..@#..@#...........+...",
"..........#$..#$..#$...........+...",
"...............................+...",
"...............................+...",
"..........@#..@#..@#...........+...",
"..........#$..#$..#$...........+...",
"...............................+...",
"...............................+...",
"..........@#..@#..@#...........+...",
"..........#$..#$..#$...........+...",
"...............................+...",
"...............................+...",
"...............................+...",
"...............................+...",
"...............................+...",
"...............................+...",
"...............................+..."};
