/* XPM */
static char * windows_xpm[] = {
"16 16 4 1",
" 	c None",
".	c #F1F1F1",
"+	c #F1F2F2",
"@	c #F1F3F3",
"                ",
"       .++++++@ ",
"       ++++++++ ",
"       ++++++++ ",
"       ++    ++ ",
"       ++    ++ ",
"       ++    ++ ",
" ++++  ++++++++ ",
" ++++  ++++++++ ",
" ++++           ",
" ++             ",
" ++    ++       ",
" ++    ++       ",
" ++++++++       ",
" ++++++++       ",
"                "};
